<svg version="1.1" id="Layer_1" xmlns="http://www.w3.org/2000/svg" xmlns:xlink="http://www.w3.org/1999/xlink" x="0px" y="0px"
	 width="100%" viewBox="0 0 1600 1600" enable-background="new 0 0 1600 1600" xml:space="preserve">
<path fill="#F7F7F7" opacity="1.000000" stroke="none" 
	d="
M1441.000000,1601.000000 
	C960.666809,1601.000000 480.833618,1601.000000 1.000322,1601.000000 
	C1.000215,1067.666992 1.000215,534.333923 1.000107,1.000679 
	C534.332886,1.000453 1067.665771,1.000453 1600.999023,1.000226 
	C1600.999268,534.332703 1600.999268,1067.665405 1600.999634,1600.999023 
	C1547.833374,1601.000000 1494.666626,1601.000000 1441.000000,1601.000000 
M555.138672,872.604492 
	C555.223999,872.090454 555.309387,871.576355 555.559387,870.070068 
	C541.352783,892.018982 527.645996,913.195618 513.574341,934.935974 
	C489.682556,876.117554 466.120758,818.111511 442.062653,758.883545 
	C439.788422,763.801025 437.946594,767.445068 436.390533,771.207275 
	C429.976044,786.716125 423.718140,802.289917 417.267975,817.783813 
	C411.353516,831.990845 405.244019,846.116699 399.325165,860.322021 
	C399.055664,860.968872 399.817352,862.045410 400.199005,863.234192 
	C414.052887,841.703613 427.553223,820.722473 441.490723,799.061890 
	C465.415314,857.990784 488.982330,916.039001 512.943420,975.057922 
	C527.532288,940.196411 541.594116,906.594360 555.138672,872.604492 
M1204.498657,827.565674 
	C1204.890991,811.588806 1205.418579,795.613281 1205.581543,779.634033 
	C1205.622925,775.582153 1204.965454,771.381836 1203.815430,767.490173 
	C1201.771362,760.572937 1192.923828,758.573425 1188.715210,764.407227 
	C1184.719849,769.945435 1182.389648,776.656799 1178.796143,782.527100 
	C1177.378540,784.842651 1174.452393,787.798157 1172.342529,787.699280 
	C1170.104126,787.594482 1167.380371,784.574829 1166.008545,782.176086 
	C1163.583374,777.935730 1162.188354,773.121582 1160.060791,768.692200 
	C1156.836914,761.979736 1149.295288,760.750427 1145.357178,766.397827 
	C1142.191284,770.937805 1139.782837,776.014099 1140.199829,781.786438 
	C1140.775757,789.755859 1142.446411,797.734009 1142.174438,805.657837 
	C1141.660645,820.617310 1142.748291,835.399109 1145.189697,850.087341 
	C1145.595459,852.529175 1147.936035,856.224792 1149.830444,856.526123 
	C1154.196655,857.220642 1155.585693,852.791931 1155.796143,849.556580 
	C1156.365601,840.805054 1156.131470,832.003235 1156.308105,823.223206 
	C1156.397583,818.773010 1156.567505,814.315979 1156.971802,809.886780 
	C1157.066650,808.847046 1158.257080,807.907227 1158.943481,806.921509 
	C1159.671509,807.641296 1160.578491,808.251953 1161.095947,809.100281 
	C1163.125000,812.426636 1164.867310,815.936646 1167.016968,819.178955 
	C1171.458984,825.878906 1176.012817,825.537537 1179.748413,818.434387 
	C1181.807251,814.519775 1183.985596,810.668091 1186.110107,806.788086 
	C1186.603638,806.912109 1187.097168,807.036194 1187.590698,807.160278 
	C1188.192627,810.240112 1189.061890,813.295227 1189.348267,816.404175 
	C1190.371948,827.516235 1190.951172,838.675842 1192.269653,849.749451 
	C1192.603271,852.551636 1193.642212,856.778076 1198.271851,855.966919 
	C1202.168335,855.284241 1203.983643,852.542603 1204.019165,848.519165 
	C1204.077881,841.861572 1204.289307,835.205261 1204.498657,827.565674 
M992.876099,813.429626 
	C994.144043,811.192749 995.411987,808.955933 996.679993,806.719116 
	C997.259216,806.896484 997.838440,807.073914 998.417664,807.251282 
	C999.001221,816.058105 999.347412,824.889282 1000.249207,833.663391 
	C1000.886108,839.860779 1002.182434,845.998962 1003.370239,852.127563 
	C1003.951721,855.128052 1005.914856,856.684875 1009.112183,856.008850 
	C1012.097900,855.377563 1014.195679,853.990112 1014.074280,850.419434 
	C1013.932861,846.262329 1013.958801,842.093384 1014.080566,837.934570 
	C1014.688171,817.181946 1015.461365,796.433167 1015.876465,775.677002 
	C1015.939331,772.532043 1014.905823,769.130859 1013.546814,766.239502 
	C1010.552673,759.869263 1001.510681,759.208374 997.865662,765.237366 
	C994.645020,770.564331 992.657043,776.629639 989.519775,782.016602 
	C987.933899,784.739502 985.009460,786.682800 982.690308,788.978638 
	C980.437622,786.522888 977.669556,784.361389 976.058777,781.539246 
	C973.895752,777.749573 972.807068,773.363953 970.921326,769.393738 
	C969.174133,765.715332 966.789551,762.369568 961.943970,763.087402 
	C957.313354,763.773315 954.045349,766.536438 953.342407,771.148621 
	C952.473816,776.847473 951.802917,782.669250 951.955322,788.413818 
	C952.440308,806.695312 953.196411,824.973999 954.216980,843.233093 
	C954.422424,846.908875 955.975403,850.612915 957.470459,854.059631 
	C958.032471,855.355286 960.249023,856.734192 961.612061,856.639893 
	C962.803101,856.557495 964.567627,854.602356 964.840332,853.228760 
	C965.829773,848.243835 966.704468,843.169312 966.875610,838.103271 
	C967.187378,828.875427 966.893555,819.628357 967.053345,810.392761 
	C967.074219,809.187317 968.281433,808.002441 968.939087,806.808044 
	C969.968140,807.670593 971.304871,808.344666 971.969849,809.430176 
	C974.158325,813.002747 976.031616,816.766785 978.164001,820.375671 
	C979.967102,823.427490 982.839111,825.209106 985.838867,822.760620 
	C988.651245,820.465088 990.582581,817.090149 992.876099,813.429626 
M816.852722,831.750122 
	C812.174011,825.958923 810.385071,819.757263 813.917603,812.666565 
	C815.457458,809.575928 816.773132,806.372620 818.162720,803.208191 
	C821.262268,796.149841 823.164978,788.962463 821.360901,781.138428 
	C819.122009,771.428650 807.135254,761.395508 793.952026,760.747559 
	C772.586426,759.697449 764.929504,773.838989 767.511169,790.707153 
	C769.106934,801.133789 768.065735,811.305481 767.762024,821.636902 
	C767.474426,831.422546 768.375183,841.275757 769.368164,851.036743 
	C769.550415,852.828369 772.683167,855.639587 774.438110,855.627686 
	C776.793335,855.611877 779.712463,853.781860 781.303467,851.840637 
	C782.675049,850.167297 782.668030,847.268677 783.019287,844.874939 
	C783.685486,840.334473 783.728394,835.655396 784.845276,831.240112 
	C786.239319,825.729431 791.126282,824.091614 795.352783,827.829468 
	C798.199951,830.347351 800.254700,833.882507 802.255066,837.208557 
	C805.428406,842.484436 808.113281,848.054077 811.285522,853.330688 
	C813.542358,857.084473 817.297363,858.135437 821.067383,856.214355 
	C825.246948,854.084534 826.175537,850.109497 823.920044,845.464966 
	C821.771423,841.040588 819.200806,836.821167 816.852722,831.750122 
M716.326233,833.648071 
	C716.897644,839.759216 717.435608,845.873657 718.054504,851.980042 
	C718.363098,855.024597 720.390198,856.605774 723.149109,855.885681 
	C724.739380,855.470581 726.686707,853.718384 727.163818,852.165710 
	C731.541626,837.917114 731.763916,823.213013 731.479431,808.471069 
	C731.322083,800.322388 731.398315,792.167236 731.119324,784.023621 
	C730.927307,778.417908 730.495789,772.803345 729.804260,767.238403 
	C729.406128,764.035278 726.755371,761.975830 723.845093,762.635193 
	C721.374023,763.195068 717.985596,765.145020 717.335938,767.212891 
	C715.817200,772.046875 715.918518,777.363708 714.936218,782.401672 
	C714.311707,785.604431 713.527710,789.077515 711.728943,791.678040 
	C709.136597,795.425964 704.919189,796.724854 700.314270,795.701355 
	C693.920471,794.280212 692.382019,788.908813 691.074036,783.655273 
	C689.770386,778.418823 689.016846,773.047668 687.916443,767.757568 
	C686.902527,762.883362 682.480774,759.897888 679.414307,762.401001 
	C677.378906,764.062378 675.479980,767.240051 675.431946,769.775146 
	C675.016602,791.722717 674.895142,813.679382 675.025757,835.631226 
	C675.057129,840.904053 675.980469,846.263428 677.270203,851.387451 
	C677.728577,853.208618 680.785583,855.898682 682.137390,855.625366 
	C684.325012,855.183105 686.356628,852.836914 687.919800,850.870056 
	C688.832275,849.721924 688.758972,847.757568 689.039062,846.144836 
	C690.664917,836.784790 692.135498,827.395264 693.933044,818.068604 
	C694.691162,814.135132 697.240051,811.461121 701.435852,810.904785 
	C706.314880,810.257812 710.534424,811.584229 712.189392,816.543091 
	C713.943665,821.799561 714.953125,827.304688 716.326233,833.648071 
M512.950500,849.593933 
	C516.819336,843.580994 520.334473,837.299622 524.643555,831.620728 
	C530.478821,823.930725 534.713928,824.001404 541.085022,831.318054 
	C543.033997,833.556213 544.590271,836.170654 546.109680,838.740906 
	C548.817871,843.322083 551.471069,847.943054 553.939941,852.656067 
	C556.099182,856.778137 558.912048,857.480347 563.736755,854.544495 
	C562.690186,846.641785 562.323181,838.320923 560.381165,830.385620 
	C556.575745,814.836243 552.028442,799.461609 547.505066,784.098083 
	C545.718933,778.031372 543.682068,771.933350 540.854187,766.304321 
	C537.100098,758.831543 529.015259,758.903748 525.237183,766.351013 
	C523.235718,770.296265 522.505798,774.871582 521.039429,779.106262 
	C517.921143,788.111084 514.659546,797.066284 511.524078,806.065247 
	C506.477264,820.549988 500.762329,834.906738 501.429047,850.655457 
	C501.499634,852.322388 502.839813,855.244019 503.747528,855.306458 
	C505.930328,855.456543 508.334961,854.511902 510.389374,853.486511 
	C511.396484,852.983826 511.822998,851.317932 512.950500,849.593933 
M1082.508789,761.494873 
	C1074.746216,760.377258 1072.673828,761.569824 1070.095337,769.087341 
	C1064.941650,784.112610 1059.838379,799.155518 1054.794189,814.217896 
	C1051.052979,825.389343 1047.672119,836.654663 1047.013306,848.533020 
	C1046.843506,851.593567 1046.636597,855.148865 1050.399414,855.729553 
	C1053.431030,856.197327 1055.994019,854.558533 1057.884766,851.412109 
	C1062.283813,844.091309 1066.968750,836.891479 1072.146118,830.106873 
	C1075.626587,825.545959 1081.082397,825.563477 1085.054565,829.680664 
	C1087.512085,832.227783 1089.442871,835.343262 1091.307495,838.388794 
	C1094.360596,843.375549 1096.908936,848.691467 1100.218872,853.489929 
	C1101.372192,855.161804 1104.140991,856.549011 1106.189331,856.572937 
	C1109.026978,856.606018 1109.367310,853.863892 1109.029419,851.425842 
	C1107.791626,842.495117 1107.343262,833.356628 1105.097290,824.684875 
	C1100.590576,807.283752 1095.115234,790.132751 1089.996582,772.891357 
	C1088.733154,768.635437 1087.079102,764.569763 1082.508789,761.494873 
M870.226379,799.646973 
	C868.638855,804.155396 866.695984,808.574280 865.533142,813.189697 
	C862.522705,825.138062 859.816040,837.163879 857.078430,849.179443 
	C856.331360,852.458313 858.153015,855.283447 860.991943,855.533997 
	C863.512024,855.756470 866.353027,855.259705 868.299744,851.647827 
	C872.473755,843.903625 877.608887,836.616577 882.914917,829.567139 
	C885.902405,825.598145 890.972412,825.629883 894.592896,829.215271 
	C897.368774,831.964233 899.750610,835.208313 901.847900,838.523132 
	C905.148560,843.739868 907.811035,849.374695 911.305481,854.445312 
	C912.259155,855.829163 915.241821,856.303650 917.253235,856.221008 
	C918.022705,856.189392 919.383789,853.374573 919.269653,851.922913 
	C918.698730,844.661682 918.601868,837.197266 916.733032,830.235168 
	C911.177246,809.538574 905.045044,788.989380 898.708069,768.515686 
	C897.426331,764.374634 894.504822,760.744568 888.922607,760.989075 
	C882.521240,761.269470 881.037964,766.300171 879.499146,770.718079 
	C876.253113,780.037537 873.627014,789.572937 870.226379,799.646973 
M641.792358,821.936951 
	C638.867981,818.162109 636.417908,813.851318 632.904419,810.742188 
	C628.024658,806.423889 622.113403,803.288452 617.087219,799.112915 
	C613.276123,795.946899 609.750000,792.238831 606.872742,788.217102 
	C604.925476,785.495361 605.002075,781.780518 608.072083,779.307556 
	C611.375732,776.646362 613.515930,771.137695 619.614258,774.739807 
	C621.544128,775.879700 624.313538,775.705750 626.717712,775.907837 
	C629.654724,776.154602 632.006836,775.801514 633.178284,772.157288 
	C634.349792,768.513062 632.887695,766.738342 630.356140,764.716675 
	C624.284851,759.868164 617.270142,759.580627 610.065369,760.172302 
	C595.862305,761.338745 586.393066,778.479065 589.720154,790.600952 
	C591.981384,798.839355 597.978760,803.746704 604.318054,808.601685 
	C611.453613,814.066406 619.083374,819.134460 625.214844,825.593323 
	C631.573120,832.291016 628.664978,841.811035 620.526917,845.945923 
	C615.525208,848.487244 610.423462,848.073914 605.978149,845.795776 
	C601.026917,843.258362 598.045532,844.788391 595.334167,848.202637 
	C599.646790,857.298584 607.233337,859.358215 616.541748,859.083679 
	C636.070129,858.507751 648.565491,841.354309 641.792358,821.936951 
z"/>
<path fill="#252527" opacity="1.000000" stroke="none" 
	d="
M555.397339,872.798462 
	C541.594116,906.594360 527.532288,940.196411 512.943420,975.057922 
	C488.982330,916.039001 465.415314,857.990784 441.490723,799.061890 
	C427.553223,820.722473 414.052887,841.703613 400.199005,863.234192 
	C399.817352,862.045410 399.055664,860.968872 399.325165,860.322021 
	C405.244019,846.116699 411.353516,831.990845 417.267975,817.783813 
	C423.718140,802.289917 429.976044,786.716125 436.390533,771.207275 
	C437.946594,767.445068 439.788422,763.801025 442.062653,758.883545 
	C466.120758,818.111511 489.682556,876.117554 513.574341,934.935974 
	C527.645996,913.195618 541.352783,892.018982 555.559387,870.070068 
	C555.309387,871.576355 555.223999,872.090454 555.397339,872.798462 
z"/>
<path fill="#232325" opacity="1.000000" stroke="none" 
	d="
M1204.467529,828.057007 
	C1204.289307,835.205261 1204.077881,841.861572 1204.019165,848.519165 
	C1203.983643,852.542603 1202.168335,855.284241 1198.271851,855.966919 
	C1193.642212,856.778076 1192.603271,852.551636 1192.269653,849.749451 
	C1190.951172,838.675842 1190.371948,827.516235 1189.348267,816.404175 
	C1189.061890,813.295227 1188.192627,810.240112 1187.590698,807.160278 
	C1187.097168,807.036194 1186.603638,806.912109 1186.110107,806.788086 
	C1183.985596,810.668091 1181.807251,814.519775 1179.748413,818.434387 
	C1176.012817,825.537537 1171.458984,825.878906 1167.016968,819.178955 
	C1164.867310,815.936646 1163.125000,812.426636 1161.095947,809.100281 
	C1160.578491,808.251953 1159.671509,807.641296 1158.943481,806.921509 
	C1158.257080,807.907227 1157.066650,808.847046 1156.971802,809.886780 
	C1156.567505,814.315979 1156.397583,818.773010 1156.308105,823.223206 
	C1156.131470,832.003235 1156.365601,840.805054 1155.796143,849.556580 
	C1155.585693,852.791931 1154.196655,857.220642 1149.830444,856.526123 
	C1147.936035,856.224792 1145.595459,852.529175 1145.189697,850.087341 
	C1142.748291,835.399109 1141.660645,820.617310 1142.174438,805.657837 
	C1142.446411,797.734009 1140.775757,789.755859 1140.199829,781.786438 
	C1139.782837,776.014099 1142.191284,770.937805 1145.357178,766.397827 
	C1149.295288,760.750427 1156.836914,761.979736 1160.060791,768.692200 
	C1162.188354,773.121582 1163.583374,777.935730 1166.008545,782.176086 
	C1167.380371,784.574829 1170.104126,787.594482 1172.342529,787.699280 
	C1174.452393,787.798157 1177.378540,784.842651 1178.796143,782.527100 
	C1182.389648,776.656799 1184.719849,769.945435 1188.715210,764.407227 
	C1192.923828,758.573425 1201.771362,760.572937 1203.815430,767.490173 
	C1204.965454,771.381836 1205.622925,775.582153 1205.581543,779.634033 
	C1205.418579,795.613281 1204.890991,811.588806 1204.467529,828.057007 
z"/>
<path fill="#232325" opacity="1.000000" stroke="none" 
	d="
M992.888855,813.809937 
	C990.582581,817.090149 988.651245,820.465088 985.838867,822.760620 
	C982.839111,825.209106 979.967102,823.427490 978.164001,820.375671 
	C976.031616,816.766785 974.158325,813.002747 971.969849,809.430176 
	C971.304871,808.344666 969.968140,807.670593 968.939148,806.807983 
	C968.281433,808.002441 967.074219,809.187317 967.053345,810.392761 
	C966.893555,819.628357 967.187378,828.875427 966.875610,838.103271 
	C966.704468,843.169312 965.829773,848.243835 964.840332,853.228760 
	C964.567627,854.602356 962.803101,856.557495 961.612061,856.639893 
	C960.249023,856.734192 958.032471,855.355286 957.470459,854.059631 
	C955.975403,850.612915 954.422424,846.908875 954.216980,843.233093 
	C953.196411,824.973999 952.440308,806.695312 951.955322,788.413818 
	C951.802917,782.669250 952.473816,776.847473 953.342407,771.148621 
	C954.045349,766.536438 957.313354,763.773315 961.943970,763.087402 
	C966.789551,762.369568 969.174133,765.715332 970.921326,769.393738 
	C972.807068,773.363953 973.895752,777.749573 976.058777,781.539246 
	C977.669556,784.361389 980.437622,786.522888 982.690308,788.978638 
	C985.009460,786.682800 987.933899,784.739502 989.519775,782.016602 
	C992.657043,776.629639 994.645020,770.564331 997.865662,765.237366 
	C1001.510681,759.208374 1010.552673,759.869263 1013.546814,766.239502 
	C1014.905823,769.130859 1015.939331,772.532043 1015.876465,775.677002 
	C1015.461365,796.433167 1014.688171,817.181946 1014.080566,837.934570 
	C1013.958801,842.093384 1013.932861,846.262329 1014.074280,850.419434 
	C1014.195679,853.990112 1012.097900,855.377563 1009.112183,856.008850 
	C1005.914856,856.684875 1003.951721,855.128052 1003.370239,852.127563 
	C1002.182434,845.998962 1000.886108,839.860779 1000.249207,833.663391 
	C999.347412,824.889282 999.001221,816.058105 998.417664,807.251282 
	C997.838440,807.073914 997.259216,806.896484 996.679993,806.719116 
	C995.411987,808.955933 994.144043,811.192749 992.888855,813.809937 
z"/>
<path fill="#232325" opacity="1.000000" stroke="none" 
	d="
M816.834229,832.130859 
	C819.200806,836.821167 821.771423,841.040588 823.920044,845.464966 
	C826.175537,850.109497 825.246948,854.084534 821.067383,856.214355 
	C817.297363,858.135437 813.542358,857.084473 811.285522,853.330688 
	C808.113281,848.054077 805.428406,842.484436 802.255066,837.208557 
	C800.254700,833.882507 798.199951,830.347351 795.352783,827.829468 
	C791.126282,824.091614 786.239319,825.729431 784.845276,831.240112 
	C783.728394,835.655396 783.685486,840.334473 783.019287,844.874939 
	C782.668030,847.268677 782.675049,850.167297 781.303467,851.840637 
	C779.712463,853.781860 776.793335,855.611877 774.438110,855.627686 
	C772.683167,855.639587 769.550415,852.828369 769.368164,851.036743 
	C768.375183,841.275757 767.474426,831.422546 767.762024,821.636902 
	C768.065735,811.305481 769.106934,801.133789 767.511169,790.707153 
	C764.929504,773.838989 772.586426,759.697449 793.952026,760.747559 
	C807.135254,761.395508 819.122009,771.428650 821.360901,781.138428 
	C823.164978,788.962463 821.262268,796.149841 818.162720,803.208191 
	C816.773132,806.372620 815.457458,809.575928 813.917603,812.666565 
	C810.385071,819.757263 812.174011,825.958923 816.834229,832.130859 
M784.491760,796.495972 
	C787.781006,805.309998 792.452332,807.948364 799.371887,804.488159 
	C805.027954,801.659790 808.037476,796.866394 807.999878,790.434937 
	C807.961975,783.946106 805.316223,778.818665 799.456482,775.763428 
	C795.105469,773.494934 790.766235,774.671509 787.538818,778.665894 
	C783.430664,783.750183 783.165833,789.599548 784.491760,796.495972 
z"/>
<path fill="#232325" opacity="1.000000" stroke="none" 
	d="
M716.307068,833.174622 
	C714.953125,827.304688 713.943665,821.799561 712.189392,816.543091 
	C710.534424,811.584229 706.314880,810.257812 701.435852,810.904785 
	C697.240051,811.461121 694.691162,814.135132 693.933044,818.068604 
	C692.135498,827.395264 690.664917,836.784790 689.039062,846.144836 
	C688.758972,847.757568 688.832275,849.721924 687.919800,850.870056 
	C686.356628,852.836914 684.325012,855.183105 682.137390,855.625366 
	C680.785583,855.898682 677.728577,853.208618 677.270203,851.387451 
	C675.980469,846.263428 675.057129,840.904053 675.025757,835.631226 
	C674.895142,813.679382 675.016602,791.722717 675.431946,769.775146 
	C675.479980,767.240051 677.378906,764.062378 679.414307,762.401001 
	C682.480774,759.897888 686.902527,762.883362 687.916443,767.757568 
	C689.016846,773.047668 689.770386,778.418823 691.074036,783.655273 
	C692.382019,788.908813 693.920471,794.280212 700.314270,795.701355 
	C704.919189,796.724854 709.136597,795.425964 711.728943,791.678040 
	C713.527710,789.077515 714.311707,785.604431 714.936218,782.401672 
	C715.918518,777.363708 715.817200,772.046875 717.335938,767.212891 
	C717.985596,765.145020 721.374023,763.195068 723.845093,762.635193 
	C726.755371,761.975830 729.406128,764.035278 729.804260,767.238403 
	C730.495789,772.803345 730.927307,778.417908 731.119324,784.023621 
	C731.398315,792.167236 731.322083,800.322388 731.479431,808.471069 
	C731.763916,823.213013 731.541626,837.917114 727.163818,852.165710 
	C726.686707,853.718384 724.739380,855.470581 723.149109,855.885681 
	C720.390198,856.605774 718.363098,855.024597 718.054504,851.980042 
	C717.435608,845.873657 716.897644,839.759216 716.307068,833.174622 
z"/>
<path fill="#232325" opacity="1.000000" stroke="none" 
	d="
M512.731384,849.886230 
	C511.822998,851.317932 511.396484,852.983826 510.389374,853.486511 
	C508.334961,854.511902 505.930328,855.456543 503.747528,855.306458 
	C502.839813,855.244019 501.499634,852.322388 501.429047,850.655457 
	C500.762329,834.906738 506.477264,820.549988 511.524078,806.065247 
	C514.659546,797.066284 517.921143,788.111084 521.039429,779.106262 
	C522.505798,774.871582 523.235718,770.296265 525.237183,766.351013 
	C529.015259,758.903748 537.100098,758.831543 540.854187,766.304321 
	C543.682068,771.933350 545.718933,778.031372 547.505066,784.098083 
	C552.028442,799.461609 556.575745,814.836243 560.381165,830.385620 
	C562.323181,838.320923 562.690186,846.641785 563.736755,854.544495 
	C558.912048,857.480347 556.099182,856.778137 553.939941,852.656067 
	C551.471069,847.943054 548.817871,843.322083 546.109680,838.740906 
	C544.590271,836.170654 543.033997,833.556213 541.085022,831.318054 
	C534.713928,824.001404 530.478821,823.930725 524.643555,831.620728 
	C520.334473,837.299622 516.819336,843.580994 512.731384,849.886230 
M529.669495,808.651733 
	C530.837463,809.926636 532.005493,811.201538 533.269470,812.581177 
	C537.136108,809.409180 539.237305,805.831604 537.823364,801.493103 
	C537.135254,799.381775 534.696411,797.841064 533.050171,796.041992 
	C531.459106,797.928772 529.252197,799.594727 528.471497,801.772034 
	C527.844971,803.519287 528.947876,805.886536 529.669495,808.651733 
z"/>
<path fill="#232325" opacity="1.000000" stroke="none" 
	d="
M1082.831909,761.723511 
	C1087.079102,764.569763 1088.733154,768.635437 1089.996582,772.891357 
	C1095.115234,790.132751 1100.590576,807.283752 1105.097290,824.684875 
	C1107.343262,833.356628 1107.791626,842.495117 1109.029419,851.425842 
	C1109.367310,853.863892 1109.026978,856.606018 1106.189331,856.572937 
	C1104.140991,856.549011 1101.372192,855.161804 1100.218872,853.489929 
	C1096.908936,848.691467 1094.360596,843.375549 1091.307495,838.388794 
	C1089.442871,835.343262 1087.512085,832.227783 1085.054565,829.680664 
	C1081.082397,825.563477 1075.626587,825.545959 1072.146118,830.106873 
	C1066.968750,836.891479 1062.283813,844.091309 1057.884766,851.412109 
	C1055.994019,854.558533 1053.431030,856.197327 1050.399414,855.729553 
	C1046.636597,855.148865 1046.843506,851.593567 1047.013306,848.533020 
	C1047.672119,836.654663 1051.052979,825.389343 1054.794189,814.217896 
	C1059.838379,799.155518 1064.941650,784.112610 1070.095337,769.087341 
	C1072.673828,761.569824 1074.746216,760.377258 1082.831909,761.723511 
M1074.640869,804.944153 
	C1075.359741,808.199646 1076.180786,811.373779 1080.707642,812.270691 
	C1081.898071,809.945496 1083.580688,807.772827 1084.129272,805.343994 
	C1085.123901,800.939209 1082.576538,795.867432 1079.658081,796.122986 
	C1074.887695,796.540833 1074.427124,800.336609 1074.640869,804.944153 
z"/>
<path fill="#232325" opacity="1.000000" stroke="none" 
	d="
M870.486450,799.333374 
	C873.627014,789.572937 876.253113,780.037537 879.499146,770.718079 
	C881.037964,766.300171 882.521240,761.269470 888.922607,760.989075 
	C894.504822,760.744568 897.426331,764.374634 898.708069,768.515686 
	C905.045044,788.989380 911.177246,809.538574 916.733032,830.235168 
	C918.601868,837.197266 918.698730,844.661682 919.269653,851.922913 
	C919.383789,853.374573 918.022705,856.189392 917.253235,856.221008 
	C915.241821,856.303650 912.259155,855.829163 911.305481,854.445312 
	C907.811035,849.374695 905.148560,843.739868 901.847900,838.523132 
	C899.750610,835.208313 897.368774,831.964233 894.592896,829.215271 
	C890.972412,825.629883 885.902405,825.598145 882.914917,829.567139 
	C877.608887,836.616577 872.473755,843.903625 868.299744,851.647827 
	C866.353027,855.259705 863.512024,855.756470 860.991943,855.533997 
	C858.153015,855.283447 856.331360,852.458313 857.078430,849.179443 
	C859.816040,837.163879 862.522705,825.138062 865.533142,813.189697 
	C866.695984,808.574280 868.638855,804.155396 870.486450,799.333374 
M890.315918,812.015747 
	C894.031677,808.728821 896.477234,804.887085 893.943115,799.931152 
	C893.103577,798.289307 890.552795,796.016846 889.478821,796.340027 
	C887.700684,796.875305 885.640747,799.081360 885.202148,800.938354 
	C884.161804,805.342346 885.263855,809.441162 890.315918,812.015747 
z"/>
<path fill="#232325" opacity="1.000000" stroke="none" 
	d="
M641.891968,822.323914 
	C648.565491,841.354309 636.070129,858.507751 616.541748,859.083679 
	C607.233337,859.358215 599.646790,857.298584 595.334167,848.202637 
	C598.045532,844.788391 601.026917,843.258362 605.978149,845.795776 
	C610.423462,848.073914 615.525208,848.487244 620.526917,845.945923 
	C628.664978,841.811035 631.573120,832.291016 625.214844,825.593323 
	C619.083374,819.134460 611.453613,814.066406 604.318054,808.601685 
	C597.978760,803.746704 591.981384,798.839355 589.720154,790.600952 
	C586.393066,778.479065 595.862305,761.338745 610.065369,760.172302 
	C617.270142,759.580627 624.284851,759.868164 630.356140,764.716675 
	C632.887695,766.738342 634.349792,768.513062 633.178284,772.157288 
	C632.006836,775.801514 629.654724,776.154602 626.717712,775.907837 
	C624.313538,775.705750 621.544128,775.879700 619.614258,774.739807 
	C613.515930,771.137695 611.375732,776.646362 608.072083,779.307556 
	C605.002075,781.780518 604.925476,785.495361 606.872742,788.217102 
	C609.750000,792.238831 613.276123,795.946899 617.087219,799.112915 
	C622.113403,803.288452 628.024658,806.423889 632.904419,810.742188 
	C636.417908,813.851318 638.867981,818.162109 641.891968,822.323914 
z"/>
<path fill="#F7F7F7" opacity="1.000000" stroke="none" 
	d="
M784.348145,796.097046 
	C783.165833,789.599548 783.430664,783.750183 787.538818,778.665894 
	C790.766235,774.671509 795.105469,773.494934 799.456482,775.763428 
	C805.316223,778.818665 807.961975,783.946106 807.999878,790.434937 
	C808.037476,796.866394 805.027954,801.659790 799.371887,804.488159 
	C792.452332,807.948364 787.781006,805.309998 784.348145,796.097046 
z"/>
<path fill="#F7F7F7" opacity="1.000000" stroke="none" 
	d="
M529.476440,808.315186 
	C528.947876,805.886536 527.844971,803.519287 528.471497,801.772034 
	C529.252197,799.594727 531.459106,797.928772 533.050171,796.041992 
	C534.696411,797.841064 537.135254,799.381775 537.823364,801.493103 
	C539.237305,805.831604 537.136108,809.409180 533.269470,812.581177 
	C532.005493,811.201538 530.837463,809.926636 529.476440,808.315186 
z"/>
<path fill="#F7F7F7" opacity="1.000000" stroke="none" 
	d="
M1074.564575,804.564636 
	C1074.427124,800.336609 1074.887695,796.540833 1079.658081,796.122986 
	C1082.576538,795.867432 1085.123901,800.939209 1084.129272,805.343994 
	C1083.580688,807.772827 1081.898071,809.945496 1080.707642,812.270691 
	C1076.180786,811.373779 1075.359741,808.199646 1074.564575,804.564636 
z"/>
<path fill="#F7F7F7" opacity="1.000000" stroke="none" 
	d="
M889.936768,812.013550 
	C885.263855,809.441162 884.161804,805.342346 885.202148,800.938354 
	C885.640747,799.081360 887.700684,796.875305 889.478821,796.340027 
	C890.552795,796.016846 893.103577,798.289307 893.943115,799.931152 
	C896.477234,804.887085 894.031677,808.728821 889.936768,812.013550 
z"/>
</svg>